Patient4_TMGait_0pt3_02_left_13_EMG.mot
version=1
nRows=13
nColumns=33
inDegrees=no
endheader
time	1LAddLong	2LGlutMax	3LGlutMed	4LIliopsoas	5LSemiMemb	6LBicFemLong	7LRecFem	8LVastMed	9LVastLat	10LGasMed	11LTibAnt	12lTibPost	13LPeroneusLong	14LSol	15LExtDigLong	16LFlexDigLong	17RAddLong	18RGlutMax	19RGlutMed	20RIliopsoas	21RSemiMemb	22RBicFemLong	23RRecFem	24RVastMed	25RVastLat	26RGasMed	27RTibAnt	28RTibPost	29RPeroneusLong	30RSol	31RExtDigLong	32RFlexDigLong
27.195	0.065002	-0.009003	-0.065155	0.002594	-0.010071	-0.018311	0.005341	0.01358	-0.009308	-0.013885	0.077057	0.003662	0.016785	-0.057373	-0.44846	0.033722	0.023041	0.12482	-0.11566	0.38177	0.012207	0.21835	-0.15442	-0.2327	-0.11749	0.003967	-0.000916	-0.006256	0.25436	-0.09552	-0.001678	-0.018616
27.196	0.049133	-0.00885	-0.046387	0.002441	-0.012665	-0.01236	0.005341	0.001373	-0.005493	-0.015106	0.029907	-0.004272	0.038452	-0.083618	-0.30624	0.038757	0.00885	0.11978	-0.13107	0.26947	0.04364	0.11261	-0.24368	0.15274	-0.023041	-0.003052	0.14816	-0.006866	-0.33676	-0.037689	-0.00061	-0.013885
27.197	-0.015106	0.018921	0.012207	0.011597	-0.006561	-0.029449	0.009613	0.019684	-0.012512	-0.020142	-0.021515	-0.001984	0.033875	-0.094147	0.24902	0.032501	0.009003	0.18524	0.81604	0.11139	0.038452	-0.023651	-0.28275	0.46783	0.062103	-0.002747	0.081635	-0.00946	0.093231	-0.010223	-0.008087	-0.007935
27.198	0.014496	0.007019	0.071869	-0.012817	-0.002899	-0.052795	-0.003204	0.001831	-0.018311	-0.025024	-0.026855	-0.00473	0.032196	-0.028839	0.051727	0.04364	0.025635	0.21423	1.2379	-0.048981	0.019684	0.079803	0.00412	0.39505	0.010681	-0.000763	0.03418	-0.006866	0.091248	-0.068207	-0.001526	-0.007782
27.199	0.003052	0.009766	0.050964	-0.012817	-0.007019	-0.046539	0.003204	0.006561	-0.025635	0.010529	-0.067291	-0.00824	-0.023956	0.015717	0.1889	0.041046	0.041809	0.10895	0.50384	-0.034332	-0.008545	0.18265	0.10483	0.23529	0.008392	0.002899	0.060883	-0.007629	0.036316	-0.12985	-0.002594	-0.003204
27.2	0.000763	-0.0383	0.049286	-0.012207	-0.007324	-0.024719	0.037842	0.053558	-0.03067	0.012207	-0.15335	-0.00946	-0.017853	-0.021362	-0.1387	0.023651	0.026703	0.011749	-1.3249	0.006866	0.03891	0.13062	-0.059662	0.17273	0.12466	-0.008087	0.13306	-0.001984	-1.8015	-0.06012	-0.007019	-0.010071
27.201	0.015564	-0.015259	-0.001526	-0.002441	-0.012817	-0.014191	0.085297	-0.001068	-0.036316	0.003357	-0.079956	-0.006561	0.041809	-0.018463	-0.009613	0.022736	0.016327	0.059967	-1.4015	0.011292	0.015411	0.0354	-0.033569	0.048676	0.1831	-0.010834	0.15488	-0.010681	-0.75256	-0.026093	0.000763	-0.001984
27.202	0.008087	-0.044861	-0.010376	0.009155	-0.008545	0.002594	0.098114	0.000916	-0.045929	-0.01236	0.030365	-0.002289	0.069885	0.012817	-0.43854	0.031738	0.012512	0.029755	-0.79941	0.072174	-0.041199	0.057678	0.071716	-0.21301	0.20462	-0.011902	0.070343	-0.007782	0.71945	0.005188	0	-0.008087
27.203	0.007629	-0.020294	0.017853	-0.007629	-0.007019	0.006104	0.031891	0.001221	-0.016174	-0.022125	0.1294	-0.011444	0.11826	0.079956	-0.18951	0.022736	0.002594	0.056915	-0.11215	0.023956	-0.069733	0.12344	0.14877	-0.29862	0.085754	-0.012665	0.009918	-0.008087	1.6887	0.0177	0.002899	-0.014343
27.204	0.010681	-0.043335	0.016022	-0.002747	-0.007172	0.013123	0.013733	0.012207	-0.022736	-0.017242	0.10361	-0.008087	0.054474	0.099945	0.14954	0.022125	0.002747	0.022278	0.080566	0.029755	0.054169	0.093536	0.22492	0.007172	-0.023193	-0.006256	-0.10513	-0.004578	1.9518	-0.02655	-0.000763	-0.007172
27.205	0.006561	-0.021515	0.002899	0.006561	-0.008392	0.001068	0.010529	0.004578	-0.030212	0.010681	-0.038147	-0.006256	0.006104	0.034027	0.097046	0.023041	0.007782	0.012207	0.44937	0.063782	0.050354	0.048065	0.1767	0.16296	-0.030975	0.001373	-0.20416	-0.002594	0.33676	0.009918	-0.001526	-0.010986
27.206	-0.000763	-0.041046	-0.009613	0.006866	-0.007782	-0.015259	0.018311	0.003052	-0.031738	0.015564	-0.075989	-0.015869	-0.016327	-0.040588	0.002441	0.020905	-0.004578	-0.010223	0.7544	0.002136	0.008392	0.027161	0.12726	1.0439	-0.053558	-0.019073	0.042877	-0.007324	-1.8275	0.098572	-0.002899	-0.016327
27.207	0.010223	-0.032654	-0.023193	-0.005493	-0.008698	-0.022278	0.02655	0.005646	-0.03418	0.015411	-0.016327	-0.007172	-0.007629	-0.006714	-0.035095	0.011292	0.00885	0.050049	0.26855	-0.04715	0.009766	0.08316	0.19669	1.4819	-0.021515	-0.03006	0.11917	-0.001373	-0.57861	0.10223	-0.002899	-0.010071
